<svg id="visual" viewBox="0 0 900 600" width="900" height="600" xmlns="http://www.w3.org/2000/svg" xmlns:xlink="http://www.w3.org/1999/xlink" version="1.1"><rect x="0" y="0" width="900" height="600" fill="#001220"></rect><g fill="#A7233A"><circle r="75" cx="215" cy="458"></circle><circle r="56" cx="12" cy="529"></circle><circle r="55" cx="813" cy="561"></circle><circle r="64" cx="384" cy="17"></circle><circle r="65" cx="660" cy="37"></circle><circle r="59" cx="383" cy="596"></circle><circle r="61" cx="120" cy="211"></circle><circle r="63" cx="188" cy="16"></circle><circle r="65" cx="436" cy="448"></circle><circle r="71" cx="447" cy="295"></circle><circle r="57" cx="672" cy="242"></circle><circle r="56" cx="642" cy="471"></circle><circle r="64" cx="277" cy="187"></circle><circle r="62" cx="489" cy="133"></circle><circle r="58" cx="69" cy="378"></circle><circle r="70" cx="304" cy="335"></circle><circle r="73" cx="875" cy="327"></circle><circle r="69" cx="801" cy="96"></circle><circle r="57" cx="19" cy="56"></circle><circle r="62" cx="544" cy="594"></circle></g></svg>